# xmcd CD database file
#
# Track frame offsets:
#	150
#	15988
#	32393
#	46643
#	65139
#	82173
#	109370
#	129379
#	149046
#	170494
#	189077
#	212313
#	224157
#
# Disc length: 3236 seconds
#
# Revision: 0
# Processed by: cddbd v1.5.1PL0 Copyright (c) Steve Scherf et al.
# Submitted via: CDex 1.51
#
DISCID=b80ca20d
DTITLE=Teresa James and the Rhythm Tramps - Oh Yeah
DYEAR=2003
DGENRE=Blues
TTITLE0=When the Winds Die Down
TTITLE1=Come Up and See Me Sometime
TTITLE2=My Heart Took a Beating
TTITLE3=Easy Come, Easy Go
TTITLE4=High Maintenance Man
TTITLE5=Wind Cries the Blues
TTITLE6=Easier Said Than Done
TTITLE7=In and Out of Love
TTITLE8=All That I Am
TTITLE9=Just When I Thought
TTITLE10=I'll Find Someone Who Will
TTITLE11=I Want It All
TTITLE12=May You Never
EXTD=YEAR: 2003
EXTT0=
EXTT1=
EXTT2=
EXTT3=
EXTT4=
EXTT5=
EXTT6=
EXTT7=
EXTT8=
EXTT9=
EXTT10=
EXTT11=
EXTT12=
PLAYORDER=
